<?xml version="1.0" encoding="utf-8" ?>
<svg baseProfile="full" height="64" version="1.1" viewBox="0 0 64 64" width="64" xmlns="http://www.w3.org/2000/svg" xmlns:ev="http://www.w3.org/2001/xml-events" xmlns:xlink="http://www.w3.org/1999/xlink"><defs /><g><line stroke="#16A34A" stroke-linecap="round" stroke-width="2.7159999999999997" x1="9.76" x2="9.76" y1="4.88" y2="26.22" /><line stroke="#16A34A" stroke-linecap="round" stroke-width="2.7159999999999997" x1="9.76" x2="11.7" y1="33.98" y2="55.32" /><line stroke="#16A34A" stroke-linecap="round" stroke-width="2.7159999999999997" x1="52.44" x2="52.44" y1="4.88" y2="26.22" /><line stroke="#16A34A" stroke-linecap="round" stroke-width="2.7159999999999997" x1="52.44" x2="50.5" y1="33.98" y2="55.32" /><path d="M 9.76,26.22 L 17.52,22.34 L 44.68,22.34 L 52.44,26.22" fill="none" stroke="#F59E0B" stroke-linecap="round" stroke-linejoin="round" stroke-width="2.328" /><path d="M 9.76,35.92 Q 31.099999999999998,41.74 52.44,35.92" fill="none" opacity="0.6" stroke="#22C55E" stroke-linecap="round" stroke-width="1.746" /><circle cx="9.76" cy="12.64" fill="#16A34A" opacity="0.35" r="1.0475999999999999" /><circle cx="52.44" cy="14.58" fill="#16A34A" opacity="0.35" r="1.0475999999999999" /><circle cx="11.7" cy="47.56" fill="#16A34A" opacity="0.35" r="1.0475999999999999" /><circle cx="50.5" cy="45.62" fill="#16A34A" opacity="0.35" r="1.0475999999999999" /><circle cx="9.76" cy="26.22" fill="#F59E0B" r="2.425" /><circle cx="52.44" cy="26.22" fill="#F59E0B" r="2.425" /><circle cx="31.099999999999998" cy="22.34" fill="#F59E0B" r="3.1525" /><circle cx="31.099999999999998" cy="22.34" fill="#FFFFFF" opacity="0.8" r="1.4549999999999998" /><circle cx="9.76" cy="35.92" fill="#22C55E" opacity="0.7" r="1.746" /><circle cx="52.44" cy="35.92" fill="#22C55E" opacity="0.7" r="1.746" /><circle cx="9.76" cy="4.88" fill="#16A34A" r="1.746" /><circle cx="52.44" cy="4.88" fill="#16A34A" r="1.746" /></g></svg>