<?xml version="1.0" encoding="utf-8" ?>
<svg baseProfile="full" height="64" version="1.1" viewBox="0 0 300 64" width="300" xmlns="http://www.w3.org/2000/svg" xmlns:ev="http://www.w3.org/2001/xml-events" xmlns:xlink="http://www.w3.org/1999/xlink"><defs /><g><line stroke="#16A34A" stroke-linecap="round" stroke-width="2.576" x1="9.36" x2="9.36" y1="4.68" y2="24.92" /><line stroke="#16A34A" stroke-linecap="round" stroke-width="2.576" x1="9.36" x2="11.2" y1="32.28" y2="52.52" /><line stroke="#16A34A" stroke-linecap="round" stroke-width="2.576" x1="49.84" x2="49.84" y1="4.68" y2="24.92" /><line stroke="#16A34A" stroke-linecap="round" stroke-width="2.576" x1="49.84" x2="48.0" y1="32.28" y2="52.52" /><path d="M 9.36,24.92 L 16.72,21.240000000000002 L 42.480000000000004,21.240000000000002 L 49.84,24.92" fill="none" stroke="#F59E0B" stroke-linecap="round" stroke-linejoin="round" stroke-width="2.208" /><path d="M 9.36,34.120000000000005 Q 29.6,39.64000000000001 49.84,34.120000000000005" fill="none" opacity="0.6" stroke="#22C55E" stroke-linecap="round" stroke-width="1.6560000000000001" /><circle cx="9.36" cy="12.040000000000001" fill="#16A34A" opacity="0.35" r="0.9936" /><circle cx="49.84" cy="13.88" fill="#16A34A" opacity="0.35" r="0.9936" /><circle cx="11.2" cy="45.160000000000004" fill="#16A34A" opacity="0.35" r="0.9936" /><circle cx="48.0" cy="43.32" fill="#16A34A" opacity="0.35" r="0.9936" /><circle cx="9.36" cy="24.92" fill="#F59E0B" r="2.3000000000000003" /><circle cx="49.84" cy="24.92" fill="#F59E0B" r="2.3000000000000003" /><circle cx="29.6" cy="21.240000000000002" fill="#F59E0B" r="2.9900000000000007" /><circle cx="29.6" cy="21.240000000000002" fill="#FFFFFF" opacity="0.8" r="1.3800000000000001" /><circle cx="9.36" cy="34.120000000000005" fill="#22C55E" opacity="0.7" r="1.6560000000000001" /><circle cx="49.84" cy="34.120000000000005" fill="#22C55E" opacity="0.7" r="1.6560000000000001" /><circle cx="9.36" cy="4.68" fill="#16A34A" r="1.6560000000000001" /><circle cx="49.84" cy="4.68" fill="#16A34A" r="1.6560000000000001" /></g><g style="font-family: 'Space Grotesk', sans-serif; font-weight: 700; font-size: 32px;"><text fill="#1A2E1A" x="72" y="42">help</text><text fill="#16A34A" x="134" y="42">flux</text></g></svg>