<?xml version="1.0" encoding="utf-8" ?>
<svg baseProfile="full" height="512" version="1.1" viewBox="0 0 64 64" width="512" xmlns="http://www.w3.org/2000/svg" xmlns:ev="http://www.w3.org/2001/xml-events" xmlns:xlink="http://www.w3.org/1999/xlink"><defs /><g><path d="M18,6 C18,6 16,16 17,28 C17.5,34 16,44 18,58" fill="none" stroke="#059669" stroke-linecap="round" stroke-width="4" /><path d="M46,6 C46,6 48,16 47,28 C46.5,34 48,44 46,58" fill="none" stroke="#059669" stroke-linecap="round" stroke-width="4" /><path d="M19,30 C24,26 28,25 32,25 C36,25 40,26 45,30" fill="none" stroke="#10B981" stroke-linecap="round" stroke-width="3.5" /><path d="M20,38 Q32,44 44,38" fill="none" opacity="0.5" stroke="#34D399" stroke-linecap="round" stroke-width="2" /><circle cx="19" cy="30" fill="#F59E0B" r="3.5" /><circle cx="45" cy="30" fill="#F59E0B" r="3.5" /><circle cx="32" cy="25" fill="#F59E0B" r="4.5" /><circle cx="32" cy="25" fill="white" opacity="0.85" r="2" /><circle cx="18" cy="14" fill="#10B981" opacity="0.3" r="1.5" /><circle cx="46" cy="14" fill="#10B981" opacity="0.3" r="1.5" /><circle cx="17.5" cy="48" fill="#10B981" opacity="0.3" r="1.5" /><circle cx="46.5" cy="48" fill="#10B981" opacity="0.3" r="1.5" /><circle cx="18" cy="6" fill="#059669" r="2.5" /><circle cx="46" cy="6" fill="#059669" r="2.5" /></g></svg>