<?xml version="1.0" encoding="utf-8" ?>
<svg baseProfile="full" height="512" version="1.1" viewBox="0 0 512 512" width="512" xmlns="http://www.w3.org/2000/svg" xmlns:ev="http://www.w3.org/2001/xml-events" xmlns:xlink="http://www.w3.org/1999/xlink"><defs /><rect fill="#16A34A" height="512" rx="96" ry="96" width="512" x="0" y="0" /><g><line stroke="#FFFFFF" stroke-linecap="round" stroke-width="21.0" x1="90.0" x2="90.0" y1="55.0" y2="220.0" /><line stroke="#FFFFFF" stroke-linecap="round" stroke-width="21.0" x1="90.0" x2="105.0" y1="280.0" y2="445.0" /><line stroke="#FFFFFF" stroke-linecap="round" stroke-width="21.0" x1="420.0" x2="420.0" y1="55.0" y2="220.0" /><line stroke="#FFFFFF" stroke-linecap="round" stroke-width="21.0" x1="420.0" x2="405.0" y1="280.0" y2="445.0" /><path d="M 90.0,220.0 L 150.0,190.0 L 360.0,190.0 L 420.0,220.0" fill="none" stroke="#FCD34D" stroke-linecap="round" stroke-linejoin="round" stroke-width="18.0" /><path d="M 90.0,295.0 Q 255.0,340.0 420.0,295.0" fill="none" opacity="0.6" stroke="#FFFFFF" stroke-linecap="round" stroke-width="13.5" /><circle cx="90.0" cy="115.0" fill="#FFFFFF" opacity="0.35" r="8.1" /><circle cx="420.0" cy="130.0" fill="#FFFFFF" opacity="0.35" r="8.1" /><circle cx="105.0" cy="385.0" fill="#FFFFFF" opacity="0.35" r="8.1" /><circle cx="405.0" cy="370.0" fill="#FFFFFF" opacity="0.35" r="8.1" /><circle cx="90.0" cy="220.0" fill="#FCD34D" r="18.75" /><circle cx="420.0" cy="220.0" fill="#FCD34D" r="18.75" /><circle cx="255.0" cy="190.0" fill="#FCD34D" r="24.375" /><circle cx="255.0" cy="190.0" fill="#FFFFFF" opacity="0.8" r="11.25" /><circle cx="90.0" cy="295.0" fill="#FFFFFF" opacity="0.7" r="13.5" /><circle cx="420.0" cy="295.0" fill="#FFFFFF" opacity="0.7" r="13.5" /><circle cx="90.0" cy="55.0" fill="#FFFFFF" r="13.5" /><circle cx="420.0" cy="55.0" fill="#FFFFFF" r="13.5" /></g></svg>