<?xml version="1.0" encoding="utf-8" ?>
<svg baseProfile="full" height="180" version="1.1" viewBox="0 0 180 180" width="180" xmlns="http://www.w3.org/2000/svg" xmlns:ev="http://www.w3.org/2001/xml-events" xmlns:xlink="http://www.w3.org/1999/xlink"><defs /><rect fill="#16A34A" height="180" rx="45.0" ry="45.0" width="180" x="0" y="0" /><g><line stroke="#FFFFFF" stroke-linecap="round" stroke-width="5.88" x1="43.8" x2="43.8" y1="35.4" y2="81.6" /><line stroke="#FFFFFF" stroke-linecap="round" stroke-width="5.88" x1="43.8" x2="48.0" y1="98.4" y2="144.60000000000002" /><line stroke="#FFFFFF" stroke-linecap="round" stroke-width="5.88" x1="136.2" x2="136.2" y1="35.4" y2="81.6" /><line stroke="#FFFFFF" stroke-linecap="round" stroke-width="5.88" x1="136.2" x2="132.0" y1="98.4" y2="144.60000000000002" /><path d="M 43.8,81.6 L 60.599999999999994,73.19999999999999 L 119.39999999999999,73.19999999999999 L 136.2,81.6" fill="none" stroke="#FCD34D" stroke-linecap="round" stroke-linejoin="round" stroke-width="5.04" /><path d="M 43.8,102.60000000000001 Q 90.0,115.20000000000002 136.2,102.60000000000001" fill="none" opacity="0.6" stroke="#FFFFFF" stroke-linecap="round" stroke-width="3.7800000000000002" /><circle cx="43.8" cy="52.2" fill="#FFFFFF" opacity="0.35" r="2.2680000000000002" /><circle cx="136.2" cy="56.400000000000006" fill="#FFFFFF" opacity="0.35" r="2.2680000000000002" /><circle cx="48.0" cy="127.80000000000001" fill="#FFFFFF" opacity="0.35" r="2.2680000000000002" /><circle cx="132.0" cy="123.60000000000001" fill="#FFFFFF" opacity="0.35" r="2.2680000000000002" /><circle cx="43.8" cy="81.6" fill="#FCD34D" r="5.25" /><circle cx="136.2" cy="81.6" fill="#FCD34D" r="5.25" /><circle cx="90.0" cy="73.19999999999999" fill="#FCD34D" r="6.825" /><circle cx="90.0" cy="73.19999999999999" fill="#FFFFFF" opacity="0.8" r="3.15" /><circle cx="43.8" cy="102.60000000000001" fill="#FFFFFF" opacity="0.7" r="3.7800000000000002" /><circle cx="136.2" cy="102.60000000000001" fill="#FFFFFF" opacity="0.7" r="3.7800000000000002" /><circle cx="43.8" cy="35.4" fill="#FFFFFF" r="3.7800000000000002" /><circle cx="136.2" cy="35.4" fill="#FFFFFF" r="3.7800000000000002" /></g></svg>