<?xml version="1.0" encoding="utf-8" ?>
<svg baseProfile="full" height="32" version="1.1" viewBox="0 0 32 32" width="32" xmlns="http://www.w3.org/2000/svg" xmlns:ev="http://www.w3.org/2001/xml-events" xmlns:xlink="http://www.w3.org/1999/xlink"><defs /><rect fill="#16A34A" height="32" rx="8.0" ry="8.0" width="32" x="0" y="0" /><g><line stroke="#FFFFFF" stroke-linecap="round" stroke-width="1.0453333333333332" x1="7.786666666666666" x2="7.786666666666666" y1="6.293333333333333" y2="14.506666666666668" /><line stroke="#FFFFFF" stroke-linecap="round" stroke-width="1.0453333333333332" x1="7.786666666666666" x2="8.533333333333333" y1="17.493333333333332" y2="25.706666666666667" /><line stroke="#FFFFFF" stroke-linecap="round" stroke-width="1.0453333333333332" x1="24.21333333333333" x2="24.21333333333333" y1="6.293333333333333" y2="14.506666666666668" /><line stroke="#FFFFFF" stroke-linecap="round" stroke-width="1.0453333333333332" x1="24.21333333333333" x2="23.466666666666665" y1="17.493333333333332" y2="25.706666666666667" /><path d="M 7.786666666666666,14.506666666666664 L 10.773333333333333,13.013333333333332 L 21.226666666666667,13.013333333333332 L 24.21333333333333,14.506666666666664" fill="none" stroke="#FCD34D" stroke-linecap="round" stroke-linejoin="round" stroke-width="0.8959999999999999" /><path d="M 7.786666666666666,18.24 Q 16.0,20.479999999999997 24.21333333333333,18.24" fill="none" opacity="0.6" stroke="#FFFFFF" stroke-linecap="round" stroke-width="0.6719999999999999" /><circle cx="7.786666666666666" cy="9.28" fill="#FFFFFF" opacity="0.35" r="0.40319999999999995" /><circle cx="24.21333333333333" cy="10.026666666666667" fill="#FFFFFF" opacity="0.35" r="0.40319999999999995" /><circle cx="8.533333333333333" cy="22.72" fill="#FFFFFF" opacity="0.35" r="0.40319999999999995" /><circle cx="23.466666666666665" cy="21.973333333333333" fill="#FFFFFF" opacity="0.35" r="0.40319999999999995" /><circle cx="7.786666666666666" cy="14.506666666666664" fill="#FCD34D" r="0.9333333333333332" /><circle cx="24.21333333333333" cy="14.506666666666664" fill="#FCD34D" r="0.9333333333333332" /><circle cx="16.0" cy="13.013333333333332" fill="#FCD34D" r="1.2133333333333332" /><circle cx="16.0" cy="13.013333333333332" fill="#FFFFFF" opacity="0.8" r="0.5599999999999999" /><circle cx="7.786666666666666" cy="18.24" fill="#FFFFFF" opacity="0.7" r="0.6719999999999999" /><circle cx="24.21333333333333" cy="18.24" fill="#FFFFFF" opacity="0.7" r="0.6719999999999999" /><circle cx="7.786666666666666" cy="6.293333333333333" fill="#FFFFFF" r="0.6719999999999999" /><circle cx="24.21333333333333" cy="6.293333333333333" fill="#FFFFFF" r="0.6719999999999999" /></g></svg>